<svg xmlns="http://www.w3.org/2000/svg" viewBox="0 0 48 48" width="48" height="48">
  <rect width="48" height="48" rx="8" fill="#FFC107"/>
  <path d="M14 16.5c0-1.93 1.57-3.5 3.5-3.5h13c1.93 0 3.5 1.57 3.5 3.5v15c0 1.93-1.57 3.5-3.5 3.5h-13c-1.93 0-3.5-1.57-3.5-3.5v-15zm3.5 13.5l4-4.5 3 3.5 4-5 5 6v-14h-16v14zm3-11.5c0 .83-.67 1.5-1.5 1.5s-1.5-.67-1.5-1.5.67-1.5 1.5-1.5 1.5.67 1.5 1.5z" fill="white" opacity="0"/>
  <path d="M24 4c-1.1 0-2 .9-2 2v3.17c-3.36.67-6 3.57-6 7.08 0 4 3.33 7.25 7.5 7.25.83 0 1.5.67 1.5 1.5s-.67 1.5-1.5 1.5c-2.48 0-4.5-2.02-4.5-4.5H15c0 3.31 2.42 6.06 5.58 6.6v3.4c0 1.1.9 2 2 2s2-.9 2-2v-3.4c3.16-.54 5.58-3.29 5.58-6.6h-4c0 2.48-2.02 4.5-4.5 4.5-.83 0-1.5-.67-1.5-1.5s.67-1.5 1.5-1.5c4.17 0 7.5-3.25 7.5-7.25 0-3.51-2.64-6.41-6-7.08V6c0-1.1-.9-2-2-2z" fill="white" opacity="0"/>
  <path fill="white" d="M21.94 11.21c-.32-.15-.65-.25-1-.29-.34-.04-.69-.03-1.04.04-.35.06-.68.18-.98.34-.31.16-.59.37-.83.62l-5.49 5.93c-.26.28-.46.59-.59.93-.13.35-.2.71-.2 1.08 0 .36.07.72.2 1.06.13.34.33.65.59.93l5.49 5.93c.24.25.52.46.83.62.3.16.63.28.98.34.35.07.7.08 1.04.04.35-.04.68-.14 1-.29l.09-.04c.93-.41 1.57-1.33 1.57-2.37V13.62c0-1.04-.64-1.96-1.57-2.37l-.09-.04zm4.12 0c.32-.15.65-.25 1-.29.34-.04.69-.03 1.04.04.35.06.68.18.98.34.31.16.59.37.83.62l5.49 5.93c.26.28.46.59.59.93.13.35.2.71.2 1.08 0 .36-.07.72-.2 1.06-.13.34-.33.65-.59.93l-5.49 5.93c-.24.25-.52.46-.83.62-.3.16-.63.28-.98.34-.35.07-.7.08-1.04.04-.35-.04-.68-.14-1-.29l-.09-.04c-.93-.41-1.57-1.33-1.57-2.37V13.62c0-1.04.64-1.96 1.57-2.37l.09-.04z"/>
</svg>
